<svg xmlns="http://www.w3.org/2000/svg" version="1.1" xmlns:xlink="http://www.w3.org/1999/xlink" xmlns:svgjs="http://svgjs.dev/svgjs" width="1000" height="1000" viewBox="0 0 1000 1000"><g transform="matrix(1,0,0,1,-0.14221556886212738,-0.14221556886229791)"><svg viewBox="0 0 334 334" data-background-color="#242323" preserveAspectRatio="xMidYMid meet" height="1000" width="1000" xmlns="http://www.w3.org/2000/svg" xmlns:xlink="http://www.w3.org/1999/xlink"><g id="tight-bounds" transform="matrix(1,0,0,1,0.04749999999998522,0.04750000000001364)"><svg viewBox="0 0 333.90454557049503 333.90454557049503" height="333.90454557049503" width="333.90454557049503"><g><svg></svg></g><g><svg viewBox="0 0 333.90454557049503 333.90454557049503" height="333.90454557049503" width="333.90454557049503"><g><path d="M0 166.952c0-92.205 74.747-166.952 166.952-166.952 92.205 0 166.952 74.747 166.953 166.952 0 92.205-74.747 166.952-166.953 166.953-92.205 0-166.952-74.747-166.952-166.953zM166.952 316.63c82.665 0 149.677-67.013 149.678-149.678 0-82.665-67.013-149.677-149.678-149.677-82.665 0-149.677 67.013-149.677 149.677 0 82.665 67.013 149.677 149.677 149.678z" data-fill-palette-color="tertiary" fill="#ff0000" stroke="transparent"></path><ellipse rx="160.27418187383762" ry="160.27418187383762" cx="166.95227278524752" cy="166.95227278524752" fill="#ff0000" stroke="transparent" stroke-width="0" fill-opacity="1" data-fill-palette-color="tertiary"></ellipse></g><g transform="matrix(1,0,0,1,72.359907445691,71.17305217166896)"><svg viewBox="0 0 189.18473067911304 191.55844122715712" height="191.55844122715712" width="189.18473067911304"><g><svg viewBox="0 0 189.18473067911304 191.55844122715712" height="191.55844122715712" width="189.18473067911304"><g><svg viewBox="0 0 189.18473067911304 191.55844122715712" height="191.55844122715712" width="189.18473067911304"><g><svg viewBox="0 0 189.18473067911304 191.55844122715712" height="191.55844122715712" width="189.18473067911304"><g id="textblocktransform"><svg viewBox="0 0 189.18473067911304 191.55844122715712" height="191.55844122715712" width="189.18473067911304" id="textblock"><g><svg viewBox="0 0 189.18473067911304 191.55844122715712" height="191.55844122715712" width="189.18473067911304"><g transform="matrix(1,0,0,1,0,0)"><svg width="189.18473067911304" viewBox="-0.25 -36 39.85 40.35" height="191.55844122715712" data-palette-color="#ffffff"><path d="M-0.25 4.35L-0.25 4.35Q0 3.6 1.23 0.93 2.45-1.75 4.53-6.23 6.6-10.7 9.45-16.85 12.3-23 15.8-30.7L15.8-30.7Q16-31.1 16.13-31.55 16.25-32 16.25-32.35L16.25-32.35Q16.25-32.85 15.95-33.15 15.65-33.45 14.8-33.45L14.8-33.45Q12.7-33.45 11.38-32.18 10.05-30.9 9.43-29.05 8.8-27.2 8.8-25.4L8.8-25.4Q8.8-24.95 8.85-24.35 8.9-23.75 9-23L9-23Q7.8-23 7.03-23.73 6.25-24.45 5.85-25.53 5.45-26.6 5.45-27.55L5.45-27.55Q5.45-29.15 6.38-30.65 7.3-32.15 8.8-33.38 10.3-34.6 12.13-35.3 13.95-36 15.75-36L15.75-36Q17.6-36 18.9-34.98 20.2-33.95 20.9-31.28 21.6-28.6 21.6-23.6L21.6-23.6Q21.6-20.35 21.38-17.03 21.15-13.7 20.9-10.8 20.65-7.9 20.65-5.85L20.65-5.85Q21.65-8.8 23.13-12.13 24.6-15.45 26.3-18.73 28-22 29.65-24.9 31.3-27.8 32.63-29.98 33.95-32.15 34.65-33.2L34.65-33.2Q35.35-34.3 35.9-34.85 36.45-35.4 37.4-35.4L37.4-35.4Q38.1-35.4 39.6-34.85L39.6-34.85Q39.15-33.9 38.55-31.83 37.95-29.75 37.25-27L37.25-27Q36.5-24 35.75-20.43 35-16.85 34.4-13.2 33.8-9.55 33.43-6.28 33.05-3 33.05-0.5L33.05-0.5Q33.05 0.8 33.18 1.55 33.3 2.3 33.52 2.88 33.75 3.45 34.05 4.35L34.05 4.35Q31.9 4.35 30.78 3.7 29.65 3.05 29.28 1.63 28.9 0.2 28.9-2.15L28.9-2.15Q28.9-7.7 30.18-13.83 31.45-19.95 33.15-26.45L33.15-26.45Q31.75-24.45 30.25-21.7 28.75-18.95 27.3-15.9 25.85-12.85 24.55-9.88 23.25-6.9 22.25-4.38 21.25-1.85 20.7-0.15L20.7-0.15Q20.25 0 20.08 0.05 19.9 0.1 19.65 0.1L19.65 0.1Q17.9 0.1 17.43-2.02 16.95-4.15 16.95-7.85L16.95-7.85Q16.95-9.8 17-12.03 17.05-14.25 17.15-16.57 17.25-18.9 17.3-21.2 17.35-23.5 17.35-25.6L17.35-25.6Q17.35-26.35 17.32-27.1 17.3-27.85 17.3-28.55L17.3-28.55Q13.5-19.7 10.88-13.43 8.25-7.15 6.4-3.23 4.55 0.7 3 2.53 1.45 4.35-0.25 4.35Z" opacity="1" transform="matrix(1,0,0,1,0,0)" fill="#ffffff" class="wordmark-text-0" data-fill-palette-color="quaternary" id="text-0"></path></svg></g></svg></g></svg></g></svg></g><g></g></svg></g></svg></g></svg></g></svg></g><defs></defs></svg><rect width="333.90454557049503" height="333.90454557049503" fill="none" stroke="none" visibility="hidden"></rect></g></svg></g></svg>